<?xml version="1.0" encoding="utf-8"?>
<!-- Generator: Adobe Illustrator 26.4.1, SVG Export Plug-In . SVG Version: 6.00 Build 0)  -->
<svg version="1.1" id="Layer_1" xmlns="http://www.w3.org/2000/svg" xmlns:xlink="http://www.w3.org/1999/xlink" x="0px" y="0px"
	 viewBox="0 0 1999.44 1999.44" style="enable-background:new 0 0 1999.44 1999.44;" xml:space="preserve">
<style type="text/css">
	.st0{fill:#000009;}
	.st1{fill:#FEF5CF;}
	.st2{fill:#C01A17;}
	.st3{fill:url(#SVGID_1_);}
	.st4{fill:url(#SVGID_00000047779163082347079260000012778598927134212501_);}
	.st5{fill:#FC3D1A;}
	.st6{fill:#A81116;}
	.st7{fill:#AE191E;}
	.st8{fill:#D10C00;}
	.st9{fill:#B00C11;}
	.st10{fill:#AD0D0E;}
	.st11{fill:#840000;}
	.st12{fill:#B2180F;}
	.st13{fill:#FF511C;}
	.st14{fill:#F63819;}
	.st15{fill:#F66A2E;}
	.st16{fill:#FCC772;}
	.st17{fill:#F22E11;}
	.st18{fill:#FCF4C2;}
	.st19{fill:url(#SVGID_00000087405926113583944850000015311683595252258488_);}
	.st20{fill:#D91E13;}
	.st21{fill:#FE611B;}
	.st22{fill:#FEF5C6;}
	.st23{fill:url(#SVGID_00000069397694081869542150000004423621913644232375_);}
	.st24{fill:#D41C0D;}
	.st25{fill:#FE611D;}
	.st26{fill:url(#SVGID_00000072252973211087512010000006285804456886998956_);}
	.st27{fill:#D2160D;}
	.st28{fill:#FFF6C3;}
	.st29{fill:#FF5F1C;}
	.st30{fill:#DB1C0E;}
	.st31{fill:#FFF8C4;}
	.st32{fill:url(#SVGID_00000144311543770812137180000009104369688937372083_);}
	.st33{fill:#C20F0F;}
	.st34{fill:none;}
	.st35{fill:#FFF5C4;}
	.st36{fill:#FE601F;}
	.st37{fill:#E82D11;}
	.st38{fill:#8A0000;}
	.st39{fill:#F8F8C4;}
	.st40{fill:#E68A3A;}
	.st41{fill:url(#SVGID_00000113332073141485675250000004214984739896444047_);}
	.st42{fill:#D91B12;}
	.st43{fill:#7B0603;}
	.st44{fill:#FFD9B0;}
	.st45{fill:#01020A;}
	.st46{fill:#9F0707;}
	.st47{fill:#FDFACE;}
	.st48{fill:#F13012;}
</style>
<g>
	<ellipse class="st0" cx="1016.16" cy="999.72" rx="964.25" ry="972"/>
	<path class="st1" d="M104.49,999.72C95.02,494,511.95,83.88,1014.58,83.88c261.52,0,497.27,111.02,663.28,288.76l3.45-2.61
		l24.66,25.95l9.88-8.88c-170.26-197.2-421.29-321.88-701.26-321.88c-512.87,0-928.64,418.39-928.64,934.5
		c0,122.38,23.39,239.26,65.9,346.38l12.65-19.39C125.72,1225.25,104.45,1115.04,104.49,999.72z"/>
	<path class="st2" d="M1715.84,387.1l-9.88,8.88l-24.66-25.95l-3.45,2.61c153.04,163.87,246.81,384.45,246.81,627.08
		c0,505.8-407.47,918.06-910.09,915.84c-386.37-1.7-718.73-245.08-850.09-588.85l-12.65,19.39
		c136.75,344.62,471.48,588.12,862.74,588.12c512.87,0,928.64-418.39,928.64-934.5C1943.21,765.35,1857.47,551.14,1715.84,387.1z"/>
	<linearGradient id="SVGID_1_" gradientUnits="userSpaceOnUse" x1="1014.4987" y1="1915.5682" x2="1014.4987" y2="83.8806">
		<stop  offset="0.7006" style="stop-color:#FE832F"/>
		<stop  offset="0.8459" style="stop-color:#FEAE4F"/>
	</linearGradient>
	<path class="st3" d="M1014.58,83.88C511.95,83.88,95.02,494,104.49,999.72c-0.04,115.32,21.23,225.53,60,326.99l1.95-2.99
		l-1.95,2.99c131.35,343.76,463.72,587.14,850.09,588.85c502.62,2.22,910.09-410.04,910.09-915.84
		c0-242.63-93.77-463.21-246.81-627.08l-2.51,1.9l2.51-1.9C1511.85,194.9,1276.1,83.88,1014.58,83.88z M1791.06,576.32l-4.12,2.34
		c67.43,125.17,105.74,268.61,105.74,421.06c0,487.98-392.43,883.56-876.51,883.56S139.65,1487.7,139.65,999.72
		s392.43-883.56,876.51-883.56c332.85,0,622.36,187.02,770.77,462.5L1791.06,576.32z"/>
	
		<linearGradient id="SVGID_00000085932361450942855540000003233460236972533166_" gradientUnits="userSpaceOnUse" x1="1016.1639" y1="1800.5582" x2="1016.1639" y2="198.8817">
		<stop  offset="0" style="stop-color:#7F0000"/>
		<stop  offset="1" style="stop-color:#FF8E56"/>
	</linearGradient>
	<path style="fill:url(#SVGID_00000085932361450942855540000003233460236972533166_);" d="M1016.16,198.88
		c-438.76,0-794.45,358.55-794.45,800.84s355.69,800.84,794.45,800.84s794.45-358.55,794.45-800.84S1454.93,198.88,1016.16,198.88z
		 M1748.91,866.82c7.44,7.57,11.64,11.84,11.64,11.84S1756.35,874.39,1748.91,866.82c7.65,43.13,11.64,87.55,11.64,132.9
		c0,40.67-3.22,80.57-9.4,119.48h13.24h-13.24c-9.71,61.15-26.74,119.84-50.17,175.12l21.35,0.39l-21.35-0.39
		c-113.59,267.97-377.44,455.77-684.81,455.77c-243.84,0-460.29-118.19-596.07-300.84c-5.04,0.09-9.4,0.18-12.79,0.26
		c3.39-0.08,7.76-0.17,12.79-0.26c-34.22-46.03-63.31-96.15-86.43-149.51c-4.92,0.32-7.59,0.53-7.59,0.53s2.67-0.21,7.59-0.53
		c-24.9-57.48-42.86-118.72-52.82-182.63l-9.07-0.25l9.07,0.25c-5.96-38.25-9.07-77.46-9.07-117.4c0-42.96,3.59-85.08,10.47-126.07
		c-14.74,14.37-25.16,24.36-25.16,24.36s10.42-9.99,25.16-24.36c9.49-56.55,25.26-110.94,46.55-162.43
		c-8.22,8-13.52,13.06-14.17,13.46c0.66-0.39,5.96-5.46,14.17-13.46C440.96,440,706.47,249.35,1016.16,249.35
		c307.13,0,570.81,187.51,684.55,455.16c8.73,9.1,14.94,16.01,17.98,20.16c-3.04-4.15-9.25-11.06-17.98-20.16
		C1722.56,755.92,1738.88,810.27,1748.91,866.82z"/>
	<path class="st5" d="M458.55,1296.4c47.74,0.41,84.71,1.87,105.2,2.88c2.37-7.25,5.04-14.14,7.94-20.61
		c6.06-13.53,14.81-26.9,23.96-38.89c-67.82-23.45-111.16-79.79-126.75-117.51l-188.05-5.16c9.96,63.91,27.92,125.15,52.82,182.63
		C351.66,1298.57,399.84,1295.9,458.55,1296.4z"/>
	<path class="st6" d="M595.65,1239.79c20.07-26.27,42.11-45.88,42.11-45.88s-32.88,8.7-75.1-15.47c-5.22-2.99-10.34-6.16-15.35-9.52
		c-29.09-11.78-68.88-32.64-83.39-61.39c0.33,1.27,0.68,2.55,1.07,3.86c1.01,3.4,2.31,7.05,3.9,10.89l2.55,0.07l-2.55-0.07
		C484.49,1160,527.83,1216.34,595.65,1239.79z"/>
	<path class="st7" d="M1328.84,1600.36c0,0-48.35,16.76-138.28-9.99c-89.93-26.75-149.47-50.24-198.55-44.16
		c-49.08,6.09-124.42,44.48-186.95,56.41s-105.08-13.22-105.08-13.22s-18.33,26.98-26.84,38.79c29.11,14.87,59.45,24.13,86.79,25.03
		c88.48,2.9,163.42-56.09,247.06-59.58s142.15,45.56,229.18,59.58c46.52,7.5,93.04-2.98,133.73-25.57
		C1359.26,1610.34,1328.84,1600.36,1328.84,1600.36z"/>
	<path class="st8" d="M1475.5,1344.75c1.84,26.47,0.17,52.76-5.55,78.22c5.79-8.77,12.83-19.6,15.06-22.94
		c0,0,22.89,71.4-25.95,144.89c-22.73,34.21-53.73,63.06-89.16,82.73c1.75,2.85,2.97,5.9,3.42,9.13c-0.46-3.23-1.67-6.28-3.42-9.13
		c-40.69,22.59-87.21,33.06-133.73,25.57c-87.03-14.02-145.53-63.08-229.18-59.58s-158.59,62.48-247.06,59.58
		c-27.34-0.9-57.68-10.16-86.79-25.03c-2.14,2.97-3.65,4.98-4.11,5.37c0.45-0.39,1.97-2.4,4.11-5.37
		c-61.1-31.22-116.74-87.18-127.74-142.57c-8.26-14.43-21.81-37.18-22.7-37.4c-1.13-0.28-67.88,0.42-102.6,1.03
		c135.77,182.65,352.23,300.84,596.07,300.84c307.37,0,571.21-187.8,684.81-455.77l-239.24-4.39
		C1468.96,1306.99,1474.16,1325.51,1475.5,1344.75z"/>
	<path class="st9" d="M1471.96,1172.62c23.13-6.93,57.34-19.5,84.78-39.29c1.9-4.71,3.59-9.44,5.08-14.12h-9.2h9.2
		c8.23-25.93,10.5-50.52,11.11-62.68C1550.16,1116.95,1508.9,1152.24,1471.96,1172.62z"/>
	<path class="st10" d="M1219.25,1590.04c-54.47-5.48-133.44-55.76-224.02-52.54s-120.87,58.02-229.82,56.08
		c-108.95-1.93-176.64-76.07-199.52-143.11c-7.78-22.79-11.83-44.94-13.03-65.95c-6.55,13.4-13.62,40.04-9.05,90.29
		c0.33,3.6,0.87,7.2,1.59,10.81c3.68,6.42,6.31,11.2,6.31,11.59c0-0.4-2.63-5.17-6.31-11.59c11,55.39,66.64,111.35,127.74,142.57
		c8.51-11.81,26.84-38.79,26.84-38.79s42.55,25.14,105.08,13.22s137.87-50.32,186.95-56.41c49.08-6.09,108.62,17.41,198.55,44.16
		c89.93,26.75,138.28,9.99,138.28,9.99s30.42,9.98,41.06,27.29c35.43-19.67,66.43-48.53,89.16-82.73
		c48.83-73.49,25.95-144.89,25.95-144.89c-2.23,3.34-9.27,14.17-15.06,22.94c-9.32,41.5-29.42,80.82-62.78,115.18
		C1353.34,1593.59,1273.72,1595.52,1219.25,1590.04z"/>
	<path class="st11" d="M1396.21,1199.38c8.14,6.63,22.97,21.47,37.64,41.75c19.16-7.68,55.65-24.94,92.91-61.25
		c13.59-13.24,23.19-29.76,29.99-46.56c-27.44,19.79-61.65,32.37-84.78,39.29C1431.48,1194.94,1396.21,1199.38,1396.21,1199.38z"/>
	<path class="st12" d="M547.32,1168.91c-34.78-23.34-64.06-55.91-84.36-102.2c-2.48,8.36-4.01,21.79,0.97,40.81
		C478.43,1136.27,518.22,1157.13,547.32,1168.91z"/>
	<path class="st13" d="M1457.13,573.1c-80.26-78.33-208.87-208.87-252.38-232.08c-43.51-23.21-77.36,17.41-90.9,34.81
		c-13.54,17.41-50.5,71.56-96.32,74.46c-45.82,2.9-90.31-62.85-109.65-84.13c-22.24-37.71-78.33-33.84-108.3-7.74
		c-29.98,26.11-89.93,94.76-168.26,165.35S394.41,757.79,360.57,794.54c-20.75,22.53-54.95,56.33-78.31,79.11
		c-6.88,40.99-10.47,83.11-10.47,126.07c0,39.94,3.11,79.14,9.07,117.4l188.05,5.16c-1.59-3.84-2.89-7.49-3.9-10.89
		c-0.39-1.31-0.74-2.6-1.07-3.86c-2.88-5.71-4.77-11.73-5.37-18.05c0.6,6.32,2.49,12.34,5.37,18.05
		c-4.97-19.02-3.44-32.46-0.97-40.81c-0.4-0.9-0.8-1.79-1.18-2.71c-23.21-54.47-26.75-81.55-22.89-163.42
		c3.87-81.87-4.83-87.67,23.85-140.86c28.69-53.18,75.42-68.33,75.42-68.33s1.29-25.14,1.45-38.68
		c0.16-13.54,14.83-35.29,41.9-44.96c27.08-9.67,42.71,1.13,44.96,12.09c2.26,10.96,1.93,55.28,1.93,55.28
		c16.44-0.48,41.58,9.19,41.58,9.19s0.32-56.41,2.26-81.23c1.93-24.82,6.77-72.52,49.32-120.23c42.55-47.7,87.67-52.38,87.67-52.38
		s0.48-25.63,2.18-43.76c1.69-18.13,13.3-33.36,38.92-37.71c25.63-4.35,44.96,12.33,48.11,26.83c3.14,14.5,1.05,54.15,1.05,54.15
		c74.46,15.47,118.03,88.32,118.03,88.32c4.57-8.7,15.1-31.91,45.72-57.7c30.62-25.79,68.01-29.98,68.01-29.98
		s-1.61-30.94,0.32-48.67s11.93-32.88,39-34.17c27.08-1.29,47.7,21.92,49.64,35.78c1.93,13.86,0.97,47.38,0.97,47.38
		c11.28,0.64,38.68,9.03,73.17,38.03c34.49,29.01,54.23,71.48,60.52,110.16c6.29,38.68,4.35,105.4,4.35,105.4
		c16.92-7.25,41.34-7.01,41.34-7.01s1.93-35.78,1.69-45.21c-0.24-9.43-1.21-19.82,12.57-25.38s50.52,0,65.03,22.24
		c14.5,22.24,13.05,61.4,13.05,61.4c74.94,43.03,89.93,73.97,98.15,189.05c8.22,115.07-17.41,175.02-17.41,175.02
		c-0.23,0.63-0.48,1.24-0.71,1.87c-0.62,12.15-2.88,36.75-11.11,62.68h189.33c6.18-38.91,9.4-78.82,9.4-119.48
		c0-45.35-3.99-89.76-11.64-132.9C1702.06,819.17,1526.39,640.69,1457.13,573.1z"/>
	<path class="st14" d="M1556.74,1133.32c3.15-2.27,6.22-4.64,9.17-7.11C1562.96,1128.68,1559.89,1131.05,1556.74,1133.32
		c-6.8,16.8-16.4,33.32-29.99,46.56c-37.26,36.31-73.75,53.57-92.91,61.25c10.12,13.99,20.16,30.56,27.89,48.8l239.24,4.39
		c23.43-55.28,40.47-113.96,50.17-175.12h-189.33C1560.33,1123.89,1558.64,1128.62,1556.74,1133.32z"/>
	<path class="st15" d="M1307.48,334.5c-115.31-52.22-243.68-66.72-243.68-66.72c-203.79-15.23-352.47,76.15-352.47,76.15
		L463.31,578.18c0,0-97.3,96.81-134.5,133.04c-21.29,51.49-37.06,105.88-46.55,162.43c23.36-22.78,57.56-56.58,78.31-79.11
		C394.41,757.79,553,594.37,631.32,523.78S769.6,384.54,799.58,358.43c29.98-26.11,86.06-29.98,108.3,7.74
		c19.34,21.27,63.82,87.03,109.65,84.13c45.82-2.9,82.78-57.05,96.32-74.46c13.54-17.41,47.38-58.02,90.9-34.81
		c43.51,23.21,172.12,153.75,252.38,232.08c69.26,67.59,244.93,246.07,291.78,293.72c-10.03-56.55-26.35-110.91-48.19-162.31
		C1617.89,618.19,1307.48,334.5,1307.48,334.5z"/>
	<path class="st16" d="M1016.16,249.35c-309.69,0-575.2,190.65-687.36,461.86c37.2-36.23,134.5-133.04,134.5-133.04l248.03-234.25
		c0,0,148.67-91.38,352.47-76.15c0,0,128.37,14.5,243.68,66.72c0,0,310.41,283.7,393.23,370.02
		C1586.98,436.87,1323.3,249.35,1016.16,249.35z"/>
	<path class="st17" d="M522.7,1448.22c0.89,0.22,14.44,22.98,22.7,37.4c-0.72-3.61-1.26-7.21-1.59-10.81
		c-4.57-50.25,2.5-76.89,9.05-90.29c-1.81-31.56,2.81-60.54,10.9-85.24c-20.49-1-57.46-2.47-105.2-2.88
		c-58.71-0.51-106.89,2.17-124.88,3.34c23.12,53.36,52.21,103.48,86.43,149.51C454.81,1448.64,521.57,1447.94,522.7,1448.22z"/>
	<path class="st18" d="M530.11,1023.07c17.73,44.81,45.98,71.97,83.01,80.97c-4.03-2.6-8.4-5.64-12.92-9.11
		c-1.88-0.5-3.76-1.02-5.62-1.59c1.86,0.57,3.74,1.1,5.62,1.59c-17.03-13.09-36.24-32.41-47.52-58
		c-21.18-48.03-20.26-76.17-6.72-84.69c-0.5-2.78-0.95-5.6-1.34-8.46c-8.7-64.47-1.29-121.52,44.16-137.31
		c8.41-2.6,26.04-5.33,46.23,7.22c-2.75-32.62-33.01-47.18-33.01-47.18c33.84-3.55,63.18,15.79,63.18,15.79s0.16-3.35,0.24-6.8
		c-29.17-23.78-60.18-22.31-81.15-17.7c-87.67,26.75-73.49,121.52-73.49,121.52l-7.09-0.32
		C503.68,878.99,506.26,962.79,530.11,1023.07z"/>
	
		<linearGradient id="SVGID_00000060021166734284878020000009522091907921222528_" gradientUnits="userSpaceOnUse" x1="536.1994" y1="1025.8165" x2="727.5441" y2="1025.8165">
		<stop  offset="0.0587" style="stop-color:#FB4837"/>
		<stop  offset="0.5262" style="stop-color:#C72626"/>
	</linearGradient>
	<path style="fill:url(#SVGID_00000060021166734284878020000009522091907921222528_);" d="M710.94,1057.24
		c24.18-42.55,14.82-78.33,14.82-78.33c-5.53,2.77-10.76,5.53-15.06,7.79c-2.69,31.71-29.88,66.06-72.93,66.67
		c-43.13,0.62-80.95-41.16-91.81-101.13c-13.54,8.52-14.46,36.66,6.72,84.69c11.29,25.59,30.49,44.91,47.52,58
		C641.68,1105.88,687.81,1097.94,710.94,1057.24z"/>
	<path class="st20" d="M601.99,766.5c0,0,30.26,14.57,33.01,47.18c12.29,7.64,25.54,20.94,38.22,43.39
		c21.92,50.28,38.03,92.19,37.71,125.06c-0.01,1.51-0.11,3.03-0.24,4.56c4.3-2.26,9.53-5.02,15.06-7.79c0,0,9.36,35.78-14.82,78.33
		c-23.13,40.7-69.26,48.65-110.75,37.69c4.52,3.48,8.9,6.52,12.92,9.11c12.78,3.11,26.6,4.07,41.41,2.83
		c57.7-4.83,89.61-69.3,90.25-102.57c0.64-33.27-9.99-120.48-46.09-186.88c-10.3-18.94-21.64-32.44-33.28-41.93
		c-0.08,3.45-0.24,6.8-0.24,6.8S635.83,762.95,601.99,766.5z"/>
	<path class="st21" d="M637.77,1053.37c43.05-0.61,70.24-34.97,72.93-66.67c-5.72,3-9.8,5.11-10.72,5.11c0.92,0,5-2.1,10.72-5.11
		c0.13-1.53,0.22-3.05,0.24-4.56c0.32-32.88-15.79-74.78-37.71-125.06c-12.69-22.45-25.93-35.75-38.22-43.39
		c0.17,2.04,0.25,4.14,0.19,6.32c0.06-2.18-0.02-4.28-0.19-6.32c-20.18-12.54-37.81-9.82-46.23-7.22
		c-45.45,15.79-52.86,72.85-44.16,137.31c0.39,2.86,0.83,5.68,1.34,8.46c1.09-0.69,2.25-1.26,3.5-1.69
		c-1.25,0.43-2.41,1.01-3.5,1.69C556.82,1012.21,594.64,1053.98,637.77,1053.37z"/>
	<path class="st22" d="M848.3,858.63c-4.91-4.13-9.14-8.27-12.5-11.82c-46.75-16.92-63.92-71.67-66.2-90.63
		c-1.97-16.36,7.13-24.64,11.56-27.64c-0.43-1.83-0.82-3.68-1.16-5.56c-8.46-46.9-4.35-112.65,12.57-138.76
		c16.92-26.11,33.84-37.23,52.7-39.16c13.99-1.43,33.16,3.02,50.46,16.44c-0.39-39.56-38.27-50.37-41.03-51.98
		c-2.9-1.69,11.85-2.42,34.09,1.93c14.24,2.79,29.86,10.63,39.26,15.91c-23.08-22.41-48.43-27.94-60.54-28.23
		c-73.25-6.29-112.41,53.67-120.87,103.71c-8.46,50.04-6.04,121.84,14.5,179.38C776.74,825.88,813.08,852.54,848.3,858.63z"/>
	
		<linearGradient id="SVGID_00000062907304870937979920000002899829482141272999_" gradientUnits="userSpaceOnUse" x1="769.325" y1="790.1648" x2="956.2303" y2="790.1648">
		<stop  offset="0.0587" style="stop-color:#FB4837"/>
		<stop  offset="0.5262" style="stop-color:#C72626"/>
	</linearGradient>
	<path style="fill:url(#SVGID_00000062907304870937979920000002899829482141272999_);" d="M956.23,764.32
		c0.17-18.93-7.52-27.26-16.07-29.73c-2.63,14.99-7.04,27.66-13.18,36.98c-18.61,28.28-41.1,35.05-71.56,34.09
		c-29.24-0.93-64.04-33.06-74.26-77.12c-4.43,3.01-13.53,11.29-11.56,27.64c2.28,18.96,19.44,73.71,66.2,90.63
		c-5.35-5.64-8.54-9.79-8.9-9.97c0.36,0.18,3.55,4.32,8.9,9.97c6.11,2.21,12.71,3.78,19.86,4.54
		C917.55,857.88,955.99,790.67,956.23,764.32z"/>
	<path class="st24" d="M854.69,509.52c2.76,1.61,40.64,12.41,41.03,51.98c15.73,12.2,29.93,31.81,37.29,61.16
		c10.37,41.33,12.48,81.45,7.13,111.94c8.56,2.47,16.25,10.79,16.07,29.73c-0.24,26.35-38.68,93.56-100.57,87.03
		c-7.15-0.75-13.76-2.33-19.86-4.54c3.37,3.55,7.59,7.69,12.5,11.82c11.18,1.93,22.25,1.82,32.5-0.51
		c42.55-9.67,78.81-36.26,89.2-83.89c10.4-47.62,18.13-100.57-4.59-180.34c-8.85-31.07-22.65-52.23-37.37-66.53
		c-9.4-5.28-25.02-13.12-39.26-15.91C866.54,507.1,851.79,507.83,854.69,509.52z"/>
	<path class="st25" d="M855.42,805.66c30.46,0.97,52.94-5.8,71.56-34.09c6.13-9.32,10.55-21.99,13.18-36.98
		c-3.35-0.97-6.84-1.04-10.03-0.49c3.2-0.54,6.68-0.48,10.03,0.49c5.34-30.49,3.24-70.61-7.13-111.94
		c-7.37-29.35-21.56-48.96-37.29-61.16c0.02,2.02-0.05,4.11-0.24,6.28c0.18-2.17,0.26-4.26,0.24-6.28
		c-17.31-13.42-36.47-17.87-50.46-16.44c-18.86,1.93-35.78,13.05-52.7,39.16c-16.92,26.11-21.03,91.86-12.57,138.76
		c0.34,1.87,0.74,3.72,1.16,5.56c1.37-0.93,2.3-1.37,2.3-1.37s-0.93,0.43-2.3,1.37C791.38,772.6,826.18,804.73,855.42,805.66z"/>
	
		<linearGradient id="SVGID_00000031192209657785587460000016566337666618355873_" gradientUnits="userSpaceOnUse" x1="1076.5442" y1="790.7711" x2="1262.2914" y2="790.7711">
		<stop  offset="0.0587" style="stop-color:#FB4837"/>
		<stop  offset="0.5262" style="stop-color:#C72626"/>
	</linearGradient>
	<path style="fill:url(#SVGID_00000031192209657785587460000016566337666618355873_);" d="M1191.69,847.48
		c48.98-9.71,93.51-98.56,57.51-115.56c-8.44,34.25-27.09,62.07-59.93,69.06c-62.02,13.2-93.33-25.8-100.62-69.71
		c-5.13,4.04-15.39,15.12-11.07,37.04c3.82,19.37,17.42,49.84,42.77,72.86C1132.53,846.92,1156.65,854.42,1191.69,847.48z"/>
	<path class="st27" d="M1178.63,510.24c0,0,19.66,7.09,29.01,28.04c3.26,7.31,4.44,15.52,4.6,23.11
		c6.65,5.33,12.42,11.76,17.2,18.87c9.26,13.76,15.02,29.64,18.82,45.69c7.67,32.43,9.23,72.3,0.94,105.96
		c36.01,17-8.53,105.85-57.51,115.56c-35.04,6.94-59.16-0.56-71.34-6.31c5.5,4.99,11.54,9.63,18.16,13.73
		c48.81,11.28,88.73-0.44,117.16-47.14c31.59-51.89,49.64-161.49,18.05-237.23c-6.57-15.75-14.76-28.05-23.61-37.67
		c-11.36-5.95-27.95-14.39-39.25-19.06C1192.17,506.05,1178.63,510.24,1178.63,510.24z"/>
	<path class="st28" d="M1121.9,850.3c5.64,1.81,11.18,3.34,16.61,4.59c-6.62-4.1-12.67-8.74-18.16-13.73
		c-6.05-2.86-9.17-5.29-9.17-5.29s3.11,2.43,9.17,5.29c-25.35-23.02-38.94-53.49-42.77-72.86c-4.33-21.92,5.93-33,11.07-37.04
		c-0.36-2.19-0.67-4.39-0.91-6.6c-5.16-46.5,1.21-104.68,19.58-139.73c9.99-19.06,28.62-32.86,49.38-38.16
		c2.22-0.57,4.5-0.95,6.81-1.17c11.43-1.09,23.65,1.85,33.84,6.53c5.37,2.47,10.33,5.6,14.89,9.26c-0.16-7.59-1.34-15.8-4.6-23.11
		c-9.35-20.95-29.01-28.04-29.01-28.04s13.54-4.19,32.23,3.55c11.3,4.67,27.88,13.11,39.25,19.06
		c-33.69-36.62-76.96-34.18-76.96-34.18c-68.33,4.22-114.43,64.12-119.26,163.39C1049.06,761.34,1065.5,832.25,1121.9,850.3z"/>
	<path class="st29" d="M1189.27,800.98c32.84-6.99,51.49-34.81,59.93-69.06c-2.56-1.21-5.52-2.07-8.92-2.49
		c3.4,0.43,6.36,1.28,8.92,2.49c8.29-33.66,6.73-73.53-0.94-105.96c-3.8-16.06-9.56-31.94-18.82-45.69
		c-4.78-7.11-10.55-13.54-17.2-18.87c0.29,14.18-2.98,26.2-2.98,26.2s3.28-12.03,2.98-26.2c-4.56-3.65-9.53-6.79-14.89-9.26
		c-10.19-4.68-22.41-7.62-33.84-6.53c-2.31,0.22-4.59,0.6-6.81,1.17c-20.76,5.3-39.39,19.1-49.38,38.16
		c-18.37,35.05-24.74,93.23-19.58,139.73c0.24,2.21,0.55,4.41,0.91,6.6c1.6-1.26,2.71-1.84,2.71-1.84s-1.11,0.58-2.71,1.84
		C1095.94,775.19,1127.25,814.19,1189.27,800.98z"/>
	<path class="st30" d="M1418.12,767.46c0,0,16.76,5.48,28.53,20.63c6.19,7.98,7.25,18.23,6.86,26.15
		c11.81,7.25,23.67,19.44,30.37,39.93c11.68,35.72,6.29,96.34-13.33,139.95c30.73,20.69,7.26,75.61-44.05,96.96
		c-30.14,12.54-51.04,11.53-63.89,7.95c3.75,2.13,7.68,4.09,11.75,5.86c29.08,4.42,60.5-2.43,84.37-20.25
		c45.77-34.17,59.95-116.04,64.79-161.49c4.83-45.45-4.51-42.22-4.51-42.22s7.74-44.16-19.66-83.48c-2.45-3.52-4.98-6.72-7.56-9.66
		c-8.55-5.66-25.28-15.91-39.01-19.35C1433.43,763.59,1418.12,767.46,1418.12,767.46z"/>
	<path class="st31" d="M1307.89,1064c15.11,23.28,39.81,36.82,66.48,40.88c-4.08-1.77-8-3.73-11.75-5.86
		c-10.93-3.05-16.04-7.95-16.04-7.95s5.11,4.9,16.04,7.95c-35.93-20.37-56.75-55.93-56.98-83.69c-0.22-26.68,7.68-37.79,12.61-42.12
		c-0.61-28.61,9.7-58.22,25.1-94.55c21.6-50.93,44.48-72.79,74.78-75.07c0,0,17.65-0.24,35.39,10.65
		c0.39-7.92-0.67-18.17-6.86-26.15c-11.76-15.15-28.53-20.63-28.53-20.63s15.31-3.87,34.65,0.97c13.73,3.43,30.46,13.69,39.01,19.35
		c-26.27-29.97-57.51-31.55-57.51-31.55c-71.19-3.18-99.32,43.15-123.49,109.87S1276.3,1015.33,1307.89,1064z"/>
	
		<linearGradient id="SVGID_00000059284099647810482840000011878194484428055710_" gradientUnits="userSpaceOnUse" x1="1306.5935" y1="1016.4987" x2="1497.5728" y2="1068.7158">
		<stop  offset="0.0587" style="stop-color:#FB4837"/>
		<stop  offset="0.3477" style="stop-color:#C72626"/>
	</linearGradient>
	<path style="fill:url(#SVGID_00000059284099647810482840000011878194484428055710_);" d="M1426.5,1091.08
		c51.31-21.36,74.78-76.28,44.05-96.96c-8.53,18.95-19.74,34.7-33.41,43.78c-45.13,29.98-97.99,9.99-112.49-30.3
		c-4.16-11.55-6.16-22.89-6.41-34.38c-4.93,4.33-12.83,15.44-12.61,42.12c0.23,27.76,21.05,63.32,56.98,83.69
		C1375.46,1102.61,1396.37,1103.62,1426.5,1091.08z"/>
	<path class="st29" d="M1437.14,1037.9c13.67-9.08,24.88-24.83,33.41-43.78c-2.67-1.79-5.74-3.33-9.24-4.57
		c3.5,1.24,6.57,2.77,9.24,4.57c19.62-43.61,25.01-104.22,13.33-139.95c-6.7-20.49-18.55-32.67-30.37-39.93
		c-0.35,7.12-1.86,12.37-1.86,12.37s1.52-5.24,1.86-12.37c-17.74-10.89-35.39-10.65-35.39-10.65c-30.3,2.29-53.18,24.14-74.78,75.07
		c-15.41,36.33-25.72,65.93-25.1,94.55c2.22-1.95,3.83-2.52,3.83-2.52s-1.61,0.58-3.83,2.52c0.25,11.5,2.25,22.84,6.41,34.38
		C1339.15,1047.89,1392.01,1067.87,1437.14,1037.9z"/>
	<path class="st33" d="M1175.47,1476.78c-37.28-11.08-105.24-39.2-152.84-39.2c-52.22,0-106.37,18.05-136.67,28.69
		c-9.81,3.44-20.56,7.59-32.14,11.42c-49.59,43.65-102.8,37.68-149.66,10.82c-6.79-3.89-12.93-8.4-18.47-13.36
		c-0.35,4.63-0.22,9.39-0.15,13.13c44.92,33.93,85.7,40.34,144.49,17.48c60.92-23.69,158.1-62.37,236.43-41.58
		c72.12,19.14,125.78,38.88,154.4,47.74c0.7,0.01,1.41,0.03,2.14,0.04C1201.2,1502.92,1182.92,1484.86,1175.47,1476.78z"/>
	<path class="st34" d="M1220.86,1511.92c2.46,0.76,4.76,1.45,6.84,2.05c1.38,0.39,2.85,0.77,4.41,1.13
		c-3.09-0.85-6.13-1.91-9.11-3.14C1222.28,1511.95,1221.56,1511.93,1220.86,1511.92z"/>
	<path class="st35" d="M863.07,1043.05c-36.42,47.06-144.4,180.83-168.9,204.36c-24.5,23.53-65.11,66.08-64.14,132.8
		c0,0,3.71,67.04,50.61,104.27c1.64,1.31,3.28,2.57,4.91,3.8c-0.07-3.74-0.2-8.5,0.15-13.13c-33.93-30.37-45-78.62-38.9-118.79
		c7.09-46.74,42.87-71.88,42.87-71.88s8.7,7.09,2.58,22.24s-14.5,50.28-8.38,85.42c6.05,34.71,41.98,88.6,86.05,95.8
		c-12.27-5.92-25.71-13.85-35.6-23.6c-23.53-23.21-39.32-65.75-38.84-102.66c0.34-26.2,11.57-50.52,23.88-70.27
		c1.25-5.07,2.76-9.9,4.49-14.42c-1.73,4.52-3.24,9.34-4.49,14.42c5.03-8.07,10.24-15.39,14.96-21.75
		c16.28-21.92,115.23-141.5,146.18-181.79c30.94-40.29,70.91-99.92,118.29-105.72c47.38-5.8,77.68,26.43,91.22,41.26
		c13.54,14.83,134.41,162.78,134.41,162.78l78.33,101.86c9.35,37.71,14.83,88-28.69,125.39c-43.51,37.39-85.42,30.62-85.42,30.62
		c1.93,6.02,7.46,27.17,10.66,38.68c29.61,6.55,60.32,10.24,91.51-8.7c36.1-21.92,54.8-64.79,51.57-115.39s-22.56-79.29-22.56-79.29
		s23.21-12.89,42.22,21.92c19.02,34.81,41.26,93.15-2.58,153.11c-39.7,54.29-102.66,58.1-136.46,57.61
		c2.98,1.23,6.02,2.29,9.11,3.14c28.22,6.57,84.68,7.13,126.38-40.53c44-50.28,47.38-111.69,29.01-155.93
		c-18.37-44.24-46.17-64.3-52.22-69.86c-6.04-5.56-42.55-50.04-60.92-72.77c-18.37-22.72-146.66-184.69-170.51-206.77
		c-23.85-22.08-59.95-39.32-112.81-33.52C938.18,941.52,905.62,992.45,863.07,1043.05z"/>
	<path class="st36" d="M742.2,1401.16c32.56,47.7,106.05,41.26,106.05,41.26s-5.35,26.74-8.28,39.54c4.74-1.33,9.36-2.77,13.86-4.26
		c1.58-1.39,3.16-2.84,4.74-4.33c-1.58,1.5-3.16,2.94-4.74,4.33c11.58-3.83,22.33-7.98,32.14-11.42
		c30.3-10.64,84.45-28.69,136.67-28.69c47.6,0,115.56,28.12,152.84,39.2c-2.32-2.52-3.6-4.07-3.6-4.07s1.28,1.55,3.6,4.07
		c3.61,1.07,6.95,1.99,9.94,2.7c4.6,1.1,9.23,2.19,13.89,3.22c-3.21-11.51-8.74-32.66-10.66-38.68c0,0,41.9,6.77,85.42-30.62
		c43.51-37.39,38.03-87.67,28.69-125.39l-78.33-101.86c0,0-120.87-147.95-134.41-162.78c-13.54-14.83-43.84-47.06-91.22-41.26
		c-47.38,5.8-87.35,65.43-118.29,105.72c-30.94,40.29-129.9,159.87-146.18,181.79c-4.72,6.36-9.93,13.68-14.96,21.75
		C711.99,1321.35,714.36,1360.37,742.2,1401.16z"/>
	<path class="st37" d="M839.97,1481.95c2.93-12.8,8.28-39.54,8.28-39.54s-73.49,6.45-106.05-41.26
		c-27.84-40.79-30.21-79.81-22.86-109.76c-12.31,19.75-23.53,44.08-23.88,70.27c-0.48,36.91,15.31,79.45,38.84,102.66
		c9.89,9.75,23.33,17.68,35.6,23.6c0.54,0.09,1.08,0.18,1.63,0.25C796.21,1491.56,819.21,1487.79,839.97,1481.95z"/>
	<path class="st38" d="M1175.47,1476.78c7.46,8.07,25.74,26.14,47.54,35.17c33.8,0.48,96.76-3.32,136.46-57.61
		c43.84-59.95,21.6-118.29,2.58-153.11c-19.02-34.81-42.22-21.92-42.22-21.92s19.34,28.69,22.56,79.29s-15.47,93.48-51.57,115.39
		c-31.19,18.94-61.91,15.25-91.51,8.7c1.08,3.89,1.9,6.68,2.23,7.41c-0.33-0.73-1.15-3.52-2.23-7.41
		c-4.66-1.03-9.29-2.13-13.89-3.22C1182.41,1478.77,1179.08,1477.86,1175.47,1476.78z"/>
	<path class="st39" d="M1786.94,578.66l-16.95,9.62c66.01,122.34,103.49,262.48,103.49,411.44c0,477.29-384.9,864.21-859.69,864.21
		c-395.06,0-727.87-267.89-828.51-632.82c-1.54,10.23-3.07,23.35-4.05,38.26c113.09,356.09,444.13,613.9,834.92,613.9
		c484.08,0,876.51-395.58,876.51-883.56C1892.67,847.27,1854.37,703.83,1786.94,578.66z"/>
	<path class="st40" d="M154.11,999.72c0-477.29,384.9-864.21,859.69-864.21c326.62,0,610.7,183.11,756.19,452.78l16.95-9.62
		c-148.41-275.48-437.93-462.5-770.77-462.5c-484.08,0-876.51,395.58-876.51,883.56c0,94.04,14.59,184.65,41.59,269.66
		c0.97-14.91,2.51-28.04,4.05-38.26C164.97,1157.46,154.11,1079.87,154.11,999.72z"/>
	
		<linearGradient id="SVGID_00000142159440543704409020000010215690932930043019_" gradientUnits="userSpaceOnUse" x1="645.2156" y1="1295.2864" x2="778.6594" y2="1492.5511">
		<stop  offset="0.0587" style="stop-color:#FB4837"/>
		<stop  offset="0.675" style="stop-color:#B81414"/>
	</linearGradient>
	<path style="fill:url(#SVGID_00000142159440543704409020000010215690932930043019_);" d="M853.82,1477.69
		c-4.5,1.49-9.12,2.93-13.86,4.26c-0.81,3.53-1.43,6-1.71,6.56c0.28-0.56,0.9-3.03,1.71-6.56c-20.76,5.84-43.76,9.61-68.43,6.23
		c-0.54-0.07-1.09-0.16-1.63-0.25c16.92,8.16,31.6,12.5,31.6,12.5s-14.68-4.33-31.6-12.5c-44.06-7.21-80-61.1-86.05-95.8
		c-6.12-35.13,2.26-70.27,8.38-85.42s-2.58-22.24-2.58-22.24s-35.78,25.14-42.87,71.88c-6.1,40.17,4.98,88.42,38.9,118.79
		c0.4-5.36,1.45-10.53,3.97-13.71c-2.52,3.18-3.56,8.36-3.97,13.71c5.54,4.96,11.68,9.47,18.47,13.36
		C751.02,1515.37,804.23,1521.35,853.82,1477.69z"/>
	<path class="st42" d="M1387.5,1318.64c-18.37-44.24-46.17-64.3-52.22-69.86c-6.04-5.56-42.55-50.04-60.92-72.77
		c-16.2-20.04-117.87-148.36-158.03-193.54c-11.11-7.31-25.29-16-38.11-21.94c-26.11-12.09-49.32-9.03-49.32-9.03
		s37.23,17.73,49.32,40.94c7.17,13.76,8.89,22.9,9.11,28.06c0.94,1.02,1.83,1.98,2.65,2.88c13.54,14.83,134.41,162.78,134.41,162.78
		l78.33,101.86c9.35,37.71,14.83,88-28.69,125.39c-43.51,37.39-85.42,30.62-85.42,30.62c1.93,6.02,7.46,27.17,10.66,38.68
		c29.61,6.55,60.32,10.24,91.51-8.7c36.1-21.92,54.8-64.79,51.57-115.39s-22.56-79.29-22.56-79.29s23.21-12.89,42.22,21.92
		c19.02,34.81,41.26,93.15-2.58,153.11c-39.7,54.29-102.66,58.1-136.46,57.61c2.98,1.23,6.02,2.29,9.11,3.14
		c28.22,6.57,84.68,7.13,126.38-40.53C1402.49,1424.29,1405.87,1362.88,1387.5,1318.64z"/>
	<g>
		<g>
			<path class="st43" d="M1308.53,1292.21c23.25,32.64,31.45,76.93,17.52,114.99c-7.14,21.32-19.45,41.69-37.66,55.29
				c-1.63,1.34-4.11,2.87-5.85,4.07c-3.9,2.5-8.26,4.78-12.51,6.65c-5.32,2.33-11.02,4.22-16.62,5.63
				c4.27-1.88,8.46-3.88,12.54-6.04c3.89-2.18,8.09-4.66,11.65-7.33c18.68-13.16,31.57-32.94,39.44-54.12l1.24-3.17l1.05-3.25
				c2.08-6.22,4.15-13.2,5.16-19.66C1330.01,1353.63,1322.74,1320.69,1308.53,1292.21z"/>
		</g>
	</g>
	<path class="st44" d="M855.02,1191.73h20.54c8.21,0,14.87,6.66,14.87,14.87v60.31l63.25-71.35c3.12-3.52,7.62-5.5,12.32-5.42
		l30.19,0.5c11.35,0.19,17.1,13.74,9.35,22.04l-69.67,74.54l79.66,94.9c2.09,2.49,1.84,6.19-0.57,8.38l-4.59,4.18
		c-1.12,1.01-2.57,1.58-4.08,1.58h-44.58c-3.94,0-7.65-1.86-10.01-5.01l-45.81-61.22l-14.5,11.6v48.36c0,3.46-2.81,6.27-6.27,6.27
		h-38.7c-3.46,0-6.27-2.81-6.27-6.27V1206.6C840.15,1198.38,846.81,1191.73,855.02,1191.73z"/>
	<path class="st44" d="M1095.67,1192.21c-62.37,11.85-72.77,69.86-55.12,103.95c17.65,34.09,51.01,50.77,97.42,26.11
		c0,0-10.2,41.95-55.21,27.48c-1.81-0.58-3.79,0.03-4.94,1.55c-3.59,4.75-10.93,14.88-15.3,21.18c-2.11,3.04-1.74,7.16,0.88,9.77
		c6.38,6.36,20.98,16.16,49.19,14c41.1-3.14,77.36-46.42,81.95-106.85C1199.14,1228.96,1158.05,1180.36,1095.67,1192.21z
		 M1114.63,1287.46c-14.08,0-25.49-10.9-25.49-24.34c0-13.44,11.41-24.34,25.49-24.34s25.49,10.9,25.49,24.34
		C1140.11,1276.56,1128.7,1287.46,1114.63,1287.46z"/>
	<g>
		<path class="st45" d="M852.16,1182.54h20.54c8.21,0,14.87,6.66,14.87,14.87v60.31l63.25-71.35c3.12-3.52,7.62-5.5,12.32-5.42
			l30.19,0.5c11.35,0.19,17.1,13.74,9.35,22.04l-69.67,74.54l79.66,94.9c2.09,2.49,1.84,6.19-0.57,8.38l-4.59,4.18
			c-1.12,1.01-2.57,1.58-4.08,1.58h-44.58c-3.94,0-7.65-1.86-10.01-5.01l-45.81-61.22l-14.5,11.6v48.36c0,3.46-2.81,6.27-6.27,6.27
			h-38.7c-3.46,0-6.27-2.81-6.27-6.27v-183.37C837.29,1189.2,843.95,1182.54,852.16,1182.54z"/>
		<path class="st45" d="M1092.81,1183.02c-62.37,11.85-72.77,69.86-55.12,103.95c17.65,34.09,51.01,50.77,97.42,26.11
			c0,0-10.2,41.95-55.21,27.48c-1.81-0.58-3.79,0.03-4.94,1.55c-3.59,4.75-10.93,14.88-15.3,21.18c-2.11,3.04-1.74,7.16,0.88,9.77
			c6.38,6.36,20.98,16.16,49.19,14c41.1-3.14,77.36-46.42,81.95-106.85C1196.28,1219.77,1155.18,1171.18,1092.81,1183.02z
			 M1111.77,1278.27c-14.08,0-25.49-10.9-25.49-24.34c0-13.44,11.41-24.34,25.49-24.34s25.49,10.9,25.49,24.34
			C1137.25,1267.37,1125.84,1278.27,1111.77,1278.27z"/>
	</g>
	<circle class="st46" cx="1015.94" cy="334.5" r="66.72"/>
	<circle class="st46" cx="1701.05" cy="1023.71" r="62.13"/>
	<circle class="st46" cx="330.11" cy="1014.53" r="67.21"/>
	<circle class="st0" cx="1015.86" cy="316.53" r="67.69"/>
	<circle class="st0" cx="1699.29" cy="999.72" r="67.51"/>
	<circle class="st0" cx="1014.97" cy="1689.72" r="69.38"/>
	<circle class="st0" cx="328.17" cy="1000.02" r="69.46"/>
	<path class="st47" d="M979.6,323.29c-3.38-24.34,15.47-37.39,32.72-41.26c17.24-3.87,44.96,23.05,44.96,23.05
		s-10.96-21.6-18.53-27.4c0,0,8.39,2.5,16.53,7.3c-9.16-11.96-23.84-19.71-40.39-19.71c-27.77,0-50.28,21.83-50.28,48.75
		c0,23.86,17.68,43.7,41.03,47.92C997.1,355.03,982,340.59,979.6,323.29z"/>
	<path class="st48" d="M1055.28,284.98c-8.14-4.8-16.53-7.3-16.53-7.3c7.57,5.8,18.53,27.4,18.53,27.4s-27.72-26.91-44.96-23.05
		c-17.24,3.87-36.1,16.92-32.72,41.26c2.41,17.3,17.51,31.74,26.05,38.65c3,0.54,6.09,0.84,9.25,0.84
		c27.77,0,50.28-21.83,50.28-48.75C1065.17,303.15,1061.49,293.1,1055.28,284.98z"/>
	<path class="st47" d="M1666.15,1008.16c-3.38-24.34,15.47-37.39,32.72-41.26c17.24-3.87,44.96,23.05,44.96,23.05
		s-10.96-21.6-18.53-27.4c0,0,8.39,2.5,16.53,7.3c-9.16-11.96-23.84-19.71-40.39-19.71c-27.77,0-50.28,21.83-50.28,48.75
		c0,23.86,17.68,43.7,41.03,47.92C1683.66,1039.9,1668.56,1025.46,1666.15,1008.16z"/>
	<path class="st48" d="M1741.84,969.85c-8.14-4.8-16.53-7.3-16.53-7.3c7.57,5.8,18.53,27.4,18.53,27.4s-27.72-26.91-44.96-23.05
		c-17.24,3.87-36.1,16.92-32.72,41.26c2.41,17.3,17.51,31.74,26.05,38.65c3,0.54,6.09,0.84,9.25,0.84
		c27.77,0,50.28-21.83,50.28-48.75C1751.73,988.01,1748.05,977.96,1741.84,969.85z"/>
	<path class="st47" d="M981.06,1696.72c-3.38-24.34,15.47-37.39,32.72-41.26c17.24-3.87,44.96,23.05,44.96,23.05
		s-10.96-21.6-18.53-27.4c0,0,8.39,2.5,16.53,7.3c-9.16-11.96-23.84-19.71-40.39-19.71c-27.77,0-50.28,21.83-50.28,48.75
		c0,23.86,17.68,43.7,41.03,47.92C998.57,1728.46,983.47,1714.02,981.06,1696.72z"/>
	<path class="st48" d="M1056.74,1658.41c-8.14-4.8-16.53-7.3-16.53-7.3c7.57,5.8,18.53,27.4,18.53,27.4s-27.72-26.91-44.96-23.05
		c-17.24,3.87-36.1,16.92-32.72,41.26c2.41,17.3,17.51,31.74,26.05,38.65c3,0.54,6.09,0.84,9.25,0.84
		c27.77,0,50.28-21.83,50.28-48.75C1066.64,1676.57,1062.96,1666.52,1056.74,1658.41z"/>
	<path class="st47" d="M292.13,1008.56c-3.38-24.34,15.47-37.39,32.72-41.26c17.24-3.87,44.96,23.05,44.96,23.05
		s-10.96-21.6-18.53-27.4c0,0,8.39,2.5,16.53,7.3c-9.16-11.96-23.84-19.71-40.39-19.71c-27.77,0-50.28,21.83-50.28,48.75
		c0,23.86,17.68,43.7,41.03,47.92C309.64,1040.3,294.54,1025.86,292.13,1008.56z"/>
	<path class="st48" d="M367.81,970.25c-8.14-4.8-16.53-7.3-16.53-7.3c7.57,5.8,18.53,27.4,18.53,27.4s-27.72-26.91-44.96-23.05
		c-17.24,3.87-36.1,16.92-32.72,41.26c2.41,17.3,17.51,31.74,26.05,38.65c3,0.54,6.09,0.84,9.25,0.84
		c27.77,0,50.28-21.83,50.28-48.75C377.71,988.41,374.03,978.37,367.81,970.25z"/>
</g>
</svg>
